<?xml version="1.0" encoding="UTF-8"?>
<!DOCTYPE svg PUBLIC "-//W3C//DTD SVG 1.1//EN" "http://www.w3.org/Graphics/SVG/1.1/DTD/svg11.dtd">
<!-- Creator: CorelDRAW (Evaluation Version) -->
<svg xmlns="http://www.w3.org/2000/svg" xml:space="preserve" width="1.04972in" height="1.16432in" version="1.1" style="shape-rendering:geometricPrecision; text-rendering:geometricPrecision; image-rendering:optimizeQuality; fill-rule:evenodd; clip-rule:evenodd"
viewBox="0 0 156.08 173.11"
 xmlns:xlink="http://www.w3.org/1999/xlink"
 xmlns:xodm="http://www.corel.com/coreldraw/odm/2003">
 <defs>
  <style type="text/css">
   <![CDATA[
    .fil0 {fill:#E2C539}
   ]]>
  </style>
 </defs>
 <g id="Layer_x0020_1">
  <metadata id="CorelCorpID_0Corel-Layer"/>
  <g id="_2360318506416">
   <path class="fil0" d="M98.93 12.14c-9.84,-6.85 -21.73,-4.19 -32.4,-0.23 -3.85,7.87 -3.41,6.12 -3.31,15.4 0.1,7.7 -0.93,11.44 -1.46,18.57 -7.6,2.77 -8.67,7.02 -14.62,11.55 -10.28,-2.78 -29.82,-11.61 -40.4,-8.04 -2.24,7.14 4.48,6.34 19.88,9.68 8.04,1.7 16.62,7.02 23.83,7.87 3.95,-3.91 4.63,-6.68 7.5,-9.97 3.7,-4.19 7.26,-1.76 11.94,-5.49 3.46,-10.36 -0.54,-22.99 2.87,-33.3 24.51,-8.27 24.36,6.63 21.1,9.85 -6.72,6.74 -19.1,-9.12 -15.35,22.71 4.24,3.11 5.02,1.3 9.94,6.23 3.26,3.23 5.07,6.74 8.28,9.17 8.38,-1.02 42,-23.73 46.34,-30.18l-2.87 -3.4c-9.79,1.3 -29.92,20.56 -40.98,23.61l-13.25 -11.67 -0.29 -6.97c5.85,-0.45 8.97,0.96 13.4,-3 11.01,-9.68 -8.67,-10.02 25.19,-9.68 5.56,0.06 12.86,1.08 10.38,-6.68 -6.68,-2.27 -16.76,-1.64 -23.97,-2.44 6.63,-4.87 18.61,-6.12 22.41,-10.76l-2.63 -4.98c-7.89,-0.51 -23.73,7.48 -31.53,12.12z"/>
   <path class="fil0" d="M46.1 159.38l3.31 3.17c8.09,-6.34 12.18,-19.99 17.2,-23.95 0.78,8.55 -7.31,27.35 -5.07,34.03 12.82,4.25 7.75,-20.73 15.06,-34.03 0.78,5.95 2.83,11.67 3.95,17.44 1.12,5.78 1.32,14.27 9.26,11.61 1.75,-5.27 -4.34,-23.56 -5.12,-30.3 5.36,4.25 9.5,19.08 17.59,16.54 2.24,-6.74 -7.65,-17.33 -11.45,-23.11 -4.04,-6.23 -9.06,-18.97 -16.52,-19.88 -3.02,2.77 -28.41,43.15 -28.21,48.48z"/>
   <path class="fil0" d="M99.12 73.53c6.19,8.04 27.48,11.04 41.37,15.01 5.51,1.53 8.53,4.81 14.08,2.94 3.41,-10.19 -15.3,-10.76 -21.49,-13.87 7.46,-0.79 25.24,2.89 22.76,-6.97 -5.6,-1.87 -26.41,0.06 -31.77,-2.1 6.14,-3.79 22.9,-8.95 27.73,-14.89l-2.68 -4.93c-4.29,0 -44.73,18.06 -50,24.8z"/>
   <path class="fil0" d="M78.07 103.43c1.85,6.85 28.75,45.53 33.82,48.87l3.41 -2.83c0.97,-10.99 -24.12,-31.49 -25.58,-43.15 16.03,-12.63 5.51,-4.3 15.06,-13.82 6.68,3.4 38.01,16.93 43.56,15.18 2.73,-8.1 -3.27,-7.76 -19.93,-14.55 -7.89,-3.17 -18.61,-7.53 -26.65,-9.68 -4.34,3.57 -6.04,8.38 -9.84,11.38 -5.8,4.59 -9.36,2.6 -13.84,8.61z"/>
   <path class="fil0" d="M9.22 108.92c6.92,2.32 28.07,-12.23 34.06,-16.88 4.63,3.85 1.8,3.74 16.42,15.23 -4.63,6.06 -9.45,13.93 -13.45,20.44 -3.65,6.06 -11.99,16.59 -9.6,23.67 6.53,2.1 11.21,-10.25 17.88,-21.63 5.17,-8.83 11.11,-16.2 15.93,-25.82 -5.46,-5.49 -8.04,-2.94 -13.84,-8.83 -4.87,-4.93 -4.78,-8.83 -8.67,-13.76 -6.33,0.96 -14.77,7.87 -21.15,11.89 -5.41,3.45 -19.88,8.38 -17.59,15.69z"/>
   <path class="fil0" d="M56.04 88.2c12.28,12.46 27.34,7.93 30.5,1.25 1.61,-13.31 -1.36,-23.61 -16.76,-21.8 -5.02,2.38 -3.9,8.55 -4.04,13.08 3.8,3.57 5.36,4.93 10.38,3.23l1.07 -4.25c-4.82,-5.72 -3.22,0.79 -4.92,-4.59 3.07,-2.1 4.09,-0.23 6.82,2.49l0 8.89c-25.29,7.42 -15.35,-20.33 -10.57,-22.6 22.61,-2.66 11.6,12.91 23.78,8.83 5.46,-16.37 -42.34,-36.36 -36.25,15.46z"/>
   <path class="fil0" d="M1.86 63.45c3.9,5.04 15.11,7.08 21.39,7.93 -7.11,3.91 -17.35,0.68 -23.24,4.98 -0.29,10.02 11.11,4.87 17.01,4.98 -4.68,6.57 -13.94,6.12 -13.4,15.74 7.16,2.44 19.78,-10.59 35.08,-18.12 5.26,-2.6 9.4,-2.94 9.26,-8.83 -2.92,-2.15 -38.64,-10.36 -43.08,-10.08l-3.02 3.4z"/>
   <path class="fil0" d="M84.84 25.28l0.88 -6.46 -6.29 -0.23c-1.12,4.19 -1.56,8.89 5.41,6.68z"/>
  </g>
 </g>
</svg>
