<?xml version="1.0" encoding="UTF-8"?>
<!DOCTYPE svg PUBLIC "-//W3C//DTD SVG 1.1//EN" "http://www.w3.org/Graphics/SVG/1.1/DTD/svg11.dtd">
<!-- Creator: CorelDRAW (Evaluation Version) -->
<svg xmlns="http://www.w3.org/2000/svg" xml:space="preserve" width="1.07292in" height="0.968732in" version="1.1" style="shape-rendering:geometricPrecision; text-rendering:geometricPrecision; image-rendering:optimizeQuality; fill-rule:evenodd; clip-rule:evenodd"
viewBox="0 0 759.52 685.76"
 xmlns:xlink="http://www.w3.org/1999/xlink"
 xmlns:xodm="http://www.corel.com/coreldraw/odm/2003">
 <defs>
  <style type="text/css">
   <![CDATA[
    .fil0 {fill:#E2C539;fill-rule:nonzero}
   ]]>
  </style>
 </defs>
 <g id="Layer_x0020_1">
  <metadata id="CorelCorpID_0Corel-Layer"/>
  <path class="fil0" d="M725.35 227.02c3.49,-4.53 6.76,-9.25 9.79,-14.15 14.08,-22.78 22.4,-48.52 24.37,-75.09l0 -17.3c-2.36,-12.74 -13.54,-22.42 -26.95,-22.42 -10.45,0 -19.84,5.81 -24.51,15.15 -6.82,13.64 -14.96,26.45 -24.21,38.32 17.72,-38.7 27.1,-81.05 27.1,-124.3 0,-15.01 -12.22,-27.23 -27.23,-27.23 -10.53,0 -20.22,6.17 -24.68,15.72 -51.17,109.66 -133.08,199.86 -237.13,261.31 -1.11,-0.62 -2.23,-1.22 -3.38,-1.79l-1.77 -0.88 0 -29.2c0,-2.67 -0.15,-5.3 -0.43,-7.9l14.99 -22.48c6.52,-9.77 9.96,-21.15 9.96,-32.89 0,-32.7 -26.6,-59.3 -59.3,-59.3l-56.71 0c-30.65,0 -55.6,24.94 -55.6,55.6 0,14.75 5.71,28.63 16.09,39.11l-0.93 0.47c-6.05,3.03 -11.53,6.81 -16.35,11.2 -71.15,-57.06 -128.94,-130.56 -167.52,-213.22 -4.46,-9.55 -14.14,-15.72 -24.68,-15.72 -15.02,0 -27.23,12.22 -27.23,27.23 0,43.25 9.38,85.6 27.1,124.3 -9.26,-11.88 -17.39,-24.68 -24.21,-38.32 -4.67,-9.34 -14.07,-15.15 -24.51,-15.15 -15.11,0 -27.41,12.3 -27.41,27.41 0,30.9 8.59,61.12 24.83,87.4 3.03,4.9 6.3,9.62 9.79,14.15 -6.5,8.99 -10.11,19.87 -10.11,31.16 0,11.05 3.48,21.64 9.62,30.43 -6.19,8.71 -9.62,19.19 -9.62,30.08 0,19.8 11,37.59 28.7,46.44l2.39 1.19c-4.25,7.47 -6.57,15.98 -6.57,24.8 0,27.65 22.49,50.14 50.14,50.14l49.25 0c12.97,12.69 29.92,21.33 48.79,23.79 5.41,28.3 30.35,49.76 60.2,49.76l25.97 0c1.44,1.26 2.92,2.48 4.43,3.68l-5.72 7.15c-21.3,26.63 -48.68,48.76 -79.18,64.01l-13.84 6.92 9.91 11.89c37.63,45.16 91.37,72.76 149.44,77.29l63.17 0c58.06,-4.53 111.8,-32.13 149.44,-77.29l9.91 -11.89 -13.84 -6.92c-30.5,-15.25 -57.88,-37.39 -79.19,-64.02l-5.72 -7.15c1.51,-1.19 2.99,-2.41 4.43,-3.67l25.97 0c29.85,0 54.79,-21.45 60.2,-49.76 18.87,-2.46 35.83,-11.1 48.79,-23.79l49.25 0c27.64,0 50.14,-22.49 50.14,-50.14 0,-8.82 -2.32,-17.34 -6.57,-24.8l2.39 -1.19c17.71,-8.85 28.7,-26.65 28.7,-46.44 0,-10.89 -3.43,-21.38 -9.62,-30.08 6.14,-8.79 9.62,-19.38 9.62,-30.43 0,-11.3 -3.6,-22.18 -10.1,-31.16zm-75.44 75.91c6,-7.18 9.97,-15.92 11.39,-25.38l6.77 -3.38c14.78,-7.39 28.27,-16.91 40.13,-28.17 1.77,3.77 2.74,7.92 2.74,12.19 0,10.26 -5.53,19.79 -14.44,24.88l-43.17 24.66c-1.05,-1.66 -2.2,-3.26 -3.43,-4.8zm80.06 -178.75c0.49,-0.99 1.49,-1.6 2.59,-1.6 1.6,0 2.89,1.3 2.89,2.9 0,53.53 -29.48,101.7 -77.03,126.08 -4.28,-10.71 -12.22,-19.58 -22.28,-25.03 40.26,-24.73 72.65,-59.99 93.82,-102.35zm-239.67 306.02c0,30.07 -15.01,57.5 -39.74,73.68 -8.8,-8.4 -20.71,-13.57 -33.81,-13.57 -14.63,0 -27.78,6.45 -36.77,16.65 -8.99,-10.2 -22.14,-16.65 -36.77,-16.65 -13.1,0 -25,5.17 -33.81,13.57 -24.73,-16.18 -39.74,-43.62 -39.74,-73.68 0,-23.49 9.58,-46.06 26.03,-62.48 5.69,30.03 27.15,55.18 56.95,65.11l27.34 9.11 27.34 -9.11c29.8,-9.93 51.26,-35.08 56.95,-65.11 16.45,16.42 26.03,38.99 26.03,62.48zm-49.01 109.14c0,0 -0.01,0 -0.01,0l-49.03 0c0,-13.52 11,-24.51 24.51,-24.51 13.52,0 24.52,11 24.53,24.51zm-73.56 0l-49.03 0c0,-13.52 11,-24.51 24.51,-24.51 13.45,0 24.39,10.89 24.52,24.31 0,0.07 -0,0.13 -0,0.2zm-49.03 -187.63c0,-19.59 9.19,-37.48 24.51,-48.86l0 37.47c0,1.88 0.13,3.74 0.3,5.58 -8.33,7.28 -15.67,15.64 -21.79,24.81 -1.97,-6.02 -3.02,-12.42 -3.02,-19zm0 -123.5l0 -7.58c0,-13.52 11,-24.52 24.51,-24.52 27.04,0 49.03,21.99 49.03,49.03l0 95.17c0,10.04 -4.57,19.24 -12.26,25.24 -7.68,-6 -12.26,-15.21 -12.26,-25.24l0 -70.65 -12.26 0c-12.61,0 -25.22,-2.67 -36.77,-7.73l0 -33.73zm88.84 143.11c6.47,6.9 11.95,14.7 16.26,23.14 -6.61,6.73 -14.84,11.98 -24.23,15.11l-7.33 2.44 0 -25.05c6.16,-4.22 11.31,-9.55 15.3,-15.64zm-39.81 15.64l0 25.05 -7.33 -2.44c-9.39,-3.13 -17.62,-8.38 -24.23,-15.11 4.31,-8.44 9.79,-16.24 16.26,-23.14 3.98,6.09 9.14,11.42 15.3,15.64zm70.52 -16.25c-6.13,-9.18 -13.46,-17.53 -21.79,-24.81 0.18,-1.84 0.3,-3.7 0.3,-5.58l0 -37.47c15.32,11.38 24.51,29.27 24.51,48.86 0,6.59 -1.05,12.98 -3.02,19zm-112.99 -223.62l56.71 0c19.18,0 34.79,15.6 34.79,34.79 0,6.89 -2.02,13.56 -5.84,19.3l-4.4 6.6c-12.82,-21.63 -36.39,-36.17 -63.3,-36.17 -18.37,0 -34.42,10.16 -42.81,25.16 -4.02,-5.35 -6.22,-11.8 -6.22,-18.6 0,-17.13 13.94,-31.08 31.08,-31.08zm-31.08 93.43l0 19.58 -21.61 5.4c3.87,-10.51 11.43,-19.41 21.61,-24.98zm-269.67 -115.05c0,-1.59 1.3,-2.9 2.89,-2.9 1.1,0 2.1,0.61 2.59,1.6 21.18,42.35 53.56,77.62 93.83,102.35 -10.06,5.45 -18,14.31 -22.28,25.03 -47.55,-24.38 -77.03,-72.55 -77.03,-126.08zm24.51 132.71c0,-4.27 0.97,-8.42 2.74,-12.19 11.86,11.26 25.35,20.78 40.13,28.17l6.77 3.38c1.43,9.46 5.39,18.2 11.39,25.38 -1.23,1.54 -2.37,3.15 -3.42,4.8l-43.17 -24.66c-8.91,-5.09 -14.44,-14.62 -14.44,-24.88zm0 60.52c0,-4.82 1.28,-9.49 3.62,-13.58l45.74 26.14c-0.21,1.93 -0.33,3.87 -0.33,5.83 0,9.5 2.44,18.56 6.81,26.47l-40.69 -20.35c-9.34,-4.67 -15.15,-14.07 -15.15,-24.51zm24.52 72.44c0,-4.96 1.45,-9.72 4.06,-13.8l47.63 23.81c1.38,5.43 3.28,10.65 5.64,15.61l-31.72 0c-14.13,0 -25.62,-11.49 -25.62,-25.62zm147.09 62.4l0 -12.26 -12.26 0c-29.18,0 -53.65,-20.51 -59.79,-47.87l68.17 22.73 7.75 -23.26 -81.25 -27.08c-12.38,-4.12 -20.69,-15.66 -20.69,-28.71 0,-7.19 2.59,-14.1 7.13,-19.5l97.7 48.85 10.96 -21.93 -100.65 -50.32c-9.34,-4.67 -15.15,-14.07 -15.15,-24.52 0,-13.52 11,-24.51 24.52,-24.51 5.27,0 10.49,1.74 14.71,4.9l39.22 29.42 14.71 -19.61 -39.22 -29.42c-6.85,-5.13 -15.03,-8.36 -23.5,-9.4l-11.64 -13.3c-43.74,-49.98 -67.82,-114.09 -67.82,-180.51 0,-1.5 1.22,-2.72 2.72,-2.72 1.05,0 2.02,0.62 2.46,1.57 40.22,86.18 100.49,162.79 174.71,222.23 -5.36,10.13 -8.29,21.61 -8.29,33.61l0 15.7 59.88 -14.97c5.3,2.55 10.8,4.67 16.42,6.39 -13.42,12.41 -22.49,28.81 -25.83,46.96l-5.4 4.05c-28.22,21.17 -45.07,54.86 -45.07,90.14 0,21.79 6.18,42.49 17.28,60.11l-5.03 0c-20.28,0 -36.77,-16.5 -36.77,-36.77zm311.42 150.47c-10.81,11.08 -22.81,20.72 -35.72,28.78 -23,-11.97 -42.72,-29.63 -57.12,-51.22l-20.4 13.6c13.62,20.43 31.35,37.81 51.9,51.06 -23.73,10.23 -49.57,15.69 -76.15,15.69l-2.32 0 0 -49.03 -24.51 0 0 49.03 -2.33 0c-26.58,0 -52.42,-5.45 -76.14,-15.69 20.55,-13.25 38.28,-30.63 51.9,-51.06l-20.4 -13.6c-14.39,21.59 -34.11,39.25 -57.12,51.22 -12.91,-8.07 -24.91,-17.7 -35.72,-28.78 25.49,-14.79 48.59,-34 67.75,-56.36 3.41,9.43 12.44,16.2 23.03,16.2l49.03 0c4.47,0 8.65,-1.22 12.26,-3.32 3.61,2.1 7.79,3.32 12.26,3.32l49.03 0c10.6,0 19.62,-6.77 23.03,-16.2 19.16,22.36 42.26,41.57 67.75,56.36zm19.54 -162.73l-12.26 0 0 12.26c0,20.28 -16.5,36.77 -36.77,36.77l-5.02 0c11.1,-17.62 17.28,-38.32 17.28,-60.11 0,-35.28 -16.85,-68.97 -45.07,-90.13l-5.4 -4.05c-2.98,-16.21 -10.54,-31.04 -21.69,-42.86 104.38,-63.82 186.67,-155.83 238.58,-267.06 0.45,-0.95 1.41,-1.57 2.46,-1.57 1.5,0 2.72,1.22 2.72,2.72 0,66.42 -24.09,130.52 -67.82,180.51l-11.64 13.31c-8.48,1.04 -16.66,4.26 -23.5,9.4l-39.22 29.42 14.71 19.61 39.23 -29.42c4.22,-3.16 9.44,-4.91 14.71,-4.91 13.52,0 24.51,11 24.51,24.52 0,10.45 -5.81,19.84 -15.15,24.51l-100.65 50.32 10.96 21.93 97.7 -48.85c4.54,5.4 7.13,12.3 7.13,19.5 0,13.05 -8.31,24.58 -20.69,28.71l-81.25 27.08 7.75 23.26 68.17 -22.73c-6.14,27.36 -30.61,47.87 -59.79,47.87zm134.83 -50.14c0,14.13 -11.49,25.62 -25.62,25.62l-31.72 0c2.37,-4.96 4.26,-10.18 5.65,-15.61l47.63 -23.81c2.61,4.08 4.06,8.84 4.06,13.8zm9.36 -47.93l-40.69 20.35c4.37,-7.92 6.81,-16.97 6.81,-26.47 0,-1.96 -0.12,-3.9 -0.33,-5.83l45.74 -26.14c2.34,4.09 3.62,8.76 3.62,13.58 0,10.45 -5.81,19.84 -15.15,24.51z"/>
 </g>
</svg>
