<?xml version="1.0" encoding="UTF-8"?>
<!DOCTYPE svg PUBLIC "-//W3C//DTD SVG 1.1//EN" "http://www.w3.org/Graphics/SVG/1.1/DTD/svg11.dtd">
<!-- Creator: CorelDRAW (Evaluation Version) -->
<svg xmlns="http://www.w3.org/2000/svg" xml:space="preserve" width="0.378378in" height="0.947846in" version="1.1" style="shape-rendering:geometricPrecision; text-rendering:geometricPrecision; image-rendering:optimizeQuality; fill-rule:evenodd; clip-rule:evenodd"
viewBox="0 0 220.66 552.76"
 xmlns:xlink="http://www.w3.org/1999/xlink"
 xmlns:xodm="http://www.corel.com/coreldraw/odm/2003">
 <defs>
  <style type="text/css">
   <![CDATA[
    .fil0 {fill:#1A1A1A;fill-rule:nonzero}
   ]]>
  </style>
 </defs>
 <g id="Layer_x0020_1">
  <metadata id="CorelCorpID_0Corel-Layer"/>
  <path class="fil0" d="M0 385.36c0,10.04 1.34,19.9 4.02,29.58 2.68,9.68 6.6,18.82 11.77,27.44 5.16,8.61 11.38,16.38 18.66,23.3 7.28,6.92 15.34,12.75 24.2,17.48 -14.88,7.13 -23.12,17.51 -23.12,29.72 0,11.62 8.42,22.15 23.71,29.65 11.76,5.77 26.71,9.31 42.79,10.23l16.6 0c16.07,-0.91 31.03,-4.46 42.79,-10.23 15.29,-7.49 23.71,-18.02 23.71,-29.65 0,-11.18 -8.81,-21.75 -23.79,-29.37 4.01,-2.11 7.88,-4.45 11.6,-7.03 3.72,-2.58 7.27,-5.38 10.65,-8.39 3.38,-3.01 6.56,-6.22 9.55,-9.63 2.98,-3.4 5.75,-6.98 8.3,-10.72 2.55,-3.74 4.86,-7.63 6.93,-11.65 2.07,-4.03 3.89,-8.16 5.46,-12.41 1.57,-4.25 2.87,-8.58 3.9,-12.99 1.04,-4.41 1.8,-8.86 2.29,-13.36 0.49,-4.5 0.7,-9.02 0.64,-13.54 -0.06,-4.53 -0.4,-9.03 -1.02,-13.52 -0.61,-4.49 -1.5,-8.92 -2.66,-13.3 -1.16,-4.38 -2.58,-8.67 -4.26,-12.87 -1.68,-4.2 -3.62,-8.29 -5.8,-12.26 -2.18,-3.97 -4.6,-7.79 -7.25,-11.46 -2.65,-3.67 -5.52,-7.17 -8.6,-10.49 -3.08,-3.32 -6.35,-6.44 -9.81,-9.36 -27.77,-30.74 -37.33,-65.51 -28.42,-103.34 4.21,-17.44 11.48,-33.49 21.8,-48.16 1.77,-1.19 3.46,-2.48 5.07,-3.88 0.94,-0.84 1.77,-1.77 2.5,-2.81 0.72,-1.03 1.32,-2.14 1.78,-3.31 0.47,-1.17 0.79,-2.38 0.98,-3.63 0.18,-1.25 0.22,-2.5 0.11,-3.76 -0.11,-1.26 -0.36,-2.48 -0.76,-3.68 -0.39,-1.2 -0.92,-2.33 -1.58,-3.4 -0.66,-1.07 -1.44,-2.06 -2.33,-2.95 -0.89,-0.89 -1.87,-1.67 -2.95,-2.33 -0.67,-0.41 -1.36,-0.76 -2.08,-1.07 -0.96,-4.92 -2.56,-9.62 -4.79,-14.1 2.79,-0.02 5.56,-0.31 8.3,-0.87 2.74,-0.56 5.4,-1.38 7.97,-2.47 2.58,-1.08 5.02,-2.41 7.34,-3.97 2.31,-1.56 4.46,-3.34 6.42,-5.32 1.97,-1.99 3.72,-4.14 5.27,-6.47 1.55,-2.33 2.85,-4.78 3.91,-7.37 1.06,-2.59 1.86,-5.25 2.4,-7.99 0.54,-2.74 0.81,-5.51 0.8,-8.31 -0.01,-2.79 -0.28,-5.56 -0.83,-8.3 -0.55,-2.74 -1.36,-5.4 -2.43,-7.98 -1.07,-2.58 -2.38,-5.03 -3.94,-7.36 -1.55,-2.32 -3.32,-4.47 -5.29,-6.45 -1.97,-1.98 -4.12,-3.74 -6.44,-5.3 -2.32,-1.55 -4.77,-2.87 -7.35,-3.94 -2.58,-1.07 -5.24,-1.89 -7.98,-2.44 -2.74,-0.55 -5.51,-0.83 -8.3,-0.84 -6.34,-0 -12.37,1.37 -18.09,4.11 -8.69,-13.91 -24,-22.85 -40.13,-22.85 -4.19,-0 -8.32,0.55 -12.37,1.65 -4.05,1.1 -7.88,2.72 -11.49,4.85 -3.62,2.13 -6.89,4.7 -9.81,7.71 -2.93,3.01 -5.4,6.35 -7.43,10.02 -1.61,-0.91 -3.28,-1.71 -5,-2.41 -1.72,-0.69 -3.48,-1.27 -5.27,-1.74 -1.79,-0.46 -3.61,-0.81 -5.45,-1.03 -1.84,-0.23 -3.69,-0.33 -5.54,-0.32 -1.85,0.02 -3.7,0.15 -5.53,0.41 -1.83,0.26 -3.65,0.63 -5.43,1.13 -1.79,0.49 -3.53,1.1 -5.24,1.82 -1.71,0.72 -3.36,1.55 -4.96,2.49 -1.6,0.94 -3.13,1.97 -4.59,3.11 -1.46,1.14 -2.84,2.36 -4.15,3.68 -1.3,1.32 -2.51,2.72 -3.63,4.19 -1.12,1.48 -2.14,3.02 -3.06,4.63 -0.92,1.61 -1.73,3.27 -2.43,4.99 -0.7,1.72 -1.29,3.47 -1.76,5.26 -0.47,1.79 -0.82,3.61 -1.06,5.45 -0.23,1.84 -0.35,3.68 -0.34,5.54 0,2.69 0.25,5.35 0.75,7.99 0.5,2.64 1.25,5.21 2.24,7.71 0.99,2.5 2.2,4.88 3.64,7.15 1.44,2.27 3.08,4.39 4.92,6.35 1.84,1.96 3.84,3.73 6.02,5.31 2.17,1.58 4.47,2.95 6.91,4.09 2.43,1.15 4.95,2.05 7.55,2.73 2.6,0.67 5.25,1.09 7.93,1.27 -2.32,4.97 -3.7,10.19 -4.13,15.66 -0.11,0.07 -0.24,0.14 -0.36,0.21 -2.09,1.31 -3.8,3.01 -5.11,5.1 -1.32,2.09 -2.12,4.36 -2.4,6.81 -0.28,2.45 -0.02,4.85 0.79,7.18 0.81,2.34 2.08,4.38 3.82,6.13 10.46,16.46 18.07,34.15 22.84,53.07 9.92,40.37 1.96,74.79 -23.64,102.32 -6.19,5.2 -11.73,11.01 -16.65,17.43 -4.91,6.42 -9.07,13.29 -12.48,20.62 -3.4,7.33 -5.98,14.94 -7.72,22.83 -1.74,7.89 -2.6,15.88 -2.59,23.96zm171.64 127.53c0,12.59 -25.18,26.62 -61.31,26.62 -36.13,0 -61.31,-14.03 -61.31,-26.62 0,-9.08 10.32,-17.25 27.73,-22.05 10.89,3.49 22.06,5.24 33.5,5.25 11.44,0.01 22.61,-1.72 33.51,-5.2 16.27,5.27 27.88,14.35 27.88,22zm-1.22 -480.67c3.87,0 7.6,0.74 11.17,2.22 3.58,1.48 6.73,3.59 9.47,6.33 2.74,2.74 4.85,5.9 6.33,9.47 1.48,3.58 2.22,7.3 2.22,11.17 0,3.87 -0.74,7.6 -2.22,11.17 -1.48,3.58 -3.59,6.73 -6.33,9.47 -2.74,2.74 -5.89,4.85 -9.47,6.33 -3.57,1.48 -7.3,2.22 -11.17,2.22 -4.84,0 -9.39,-1.14 -13.65,-3.43 -1.18,-11.92 -6.19,-21.94 -15,-30.04 2.33,-14.01 14.58,-24.93 28.66,-24.93zm-93.97 59.66c0.01,-2.2 0.23,-4.38 0.67,-6.53 0.44,-2.16 1.08,-4.25 1.94,-6.27 0.85,-2.03 1.89,-3.96 3.12,-5.78 1.23,-1.82 2.62,-3.51 4.19,-5.06 1.56,-1.55 3.26,-2.93 5.09,-4.15 1.83,-1.21 3.77,-2.24 5.8,-3.07 2.04,-0.84 4.13,-1.46 6.29,-1.89 2.16,-0.42 4.34,-0.63 6.54,-0.62 2.2,0.01 4.38,0.23 6.53,0.66 2.16,0.44 4.25,1.08 6.28,1.92 2.03,0.85 3.96,1.89 5.78,3.11 1.83,1.23 3.51,2.62 5.06,4.18 1.55,1.56 2.94,3.25 4.16,5.09 1.22,1.83 2.25,3.76 3.08,5.8 0.84,2.03 1.47,4.13 1.89,6.29 0.42,2.16 0.64,4.34 0.63,6.54 -0,2.2 -0.22,4.38 -0.65,6.53 -0.43,2.16 -1.07,4.25 -1.91,6.28 -0.84,2.03 -1.88,3.96 -3.1,5.79 -1.22,1.83 -2.61,3.52 -4.17,5.07 -1.56,1.55 -3.25,2.94 -5.08,4.16 -1.83,1.22 -3.76,2.25 -5.79,3.09 -2.03,0.84 -4.13,1.48 -6.28,1.91 -2.16,0.43 -4.34,0.64 -6.54,0.64 -2.2,-0.01 -4.39,-0.23 -6.55,-0.67 -2.16,-0.44 -4.26,-1.08 -6.3,-1.93 -2.04,-0.85 -3.97,-1.89 -5.8,-3.12 -1.83,-1.23 -3.52,-2.63 -5.08,-4.19 -1.56,-1.56 -2.95,-3.26 -4.17,-5.1 -1.22,-1.84 -2.25,-3.77 -3.09,-5.82 -0.84,-2.04 -1.47,-4.14 -1.9,-6.3 -0.43,-2.17 -0.64,-4.35 -0.64,-6.56zm0.14 33.18c-6.17,-1.36 -12.11,-3.37 -17.84,-6.03 -0.49,-0.24 -0.98,-0.44 -1.49,-0.62 0.77,-5.77 3.14,-10.8 7.11,-15.06 2.09,8.35 6.17,15.59 12.22,21.72zm78.61 -20.28c3.12,4.18 5.27,8.81 6.45,13.88 -5.86,2.86 -11.96,5.01 -18.32,6.44 5.7,-5.76 9.65,-12.53 11.87,-20.32zm-42.99 -91.3c11.71,0 22.84,6.7 29.03,17.06 -5.42,5.2 -9.23,11.39 -11.43,18.57 -6.15,-2.88 -12.62,-4.35 -19.42,-4.41 -6.79,-0.06 -13.29,1.3 -19.49,4.07 -1.85,-5.96 -4.86,-11.27 -9.04,-15.91 1.34,-2.9 3.06,-5.54 5.16,-7.94 2.1,-2.4 4.49,-4.46 7.18,-6.18 2.69,-1.72 5.56,-3.02 8.63,-3.92 3.06,-0.89 6.19,-1.34 9.38,-1.34zm-91.02 47.94c-0.02,-3.65 0.63,-7.18 1.94,-10.59 1.31,-3.41 3.2,-6.46 5.66,-9.16 2.47,-2.7 5.34,-4.85 8.61,-6.47 3.28,-1.61 6.74,-2.58 10.38,-2.88 3.64,-0.31 7.21,0.06 10.72,1.09 3.5,1.04 6.7,2.68 9.58,4.92 2.88,2.24 5.26,4.93 7.13,8.07 1.87,3.14 3.1,6.51 3.7,10.12 -9.1,8.04 -14.32,18.1 -15.65,30.17 -3.98,2.5 -8.31,3.81 -13,3.94 -3.86,-0.01 -7.57,-0.76 -11.14,-2.25 -3.56,-1.49 -6.71,-3.6 -9.43,-6.34 -2.72,-2.74 -4.82,-5.89 -6.29,-9.46 -1.47,-3.57 -2.2,-7.29 -2.2,-11.15zm27.84 72.27c-0.02,-1.04 0.42,-1.83 1.31,-2.37 0.43,-0.28 0.9,-0.42 1.41,-0.42 0.4,0 0.79,0.09 1.15,0.27 14.46,6.98 35.33,10.99 57.25,10.99 22.55,0 43.02,-4.08 57.63,-11.48 0.41,-0.21 0.85,-0.31 1.31,-0.3 0.46,0.02 0.89,0.14 1.29,0.39 0.39,0.24 0.7,0.57 0.93,0.97 0.23,0.4 0.34,0.84 0.33,1.3 0.02,0.78 -0.26,1.43 -0.83,1.96 -11.45,10.03 -34.13,16.01 -60.67,16.01 -21.35,0 -48.25,-4.71 -60.19,-15.24 -0.62,-0.56 -0.93,-1.25 -0.92,-2.09zm13.51 23.74c13.27,4.52 29.87,7.07 47.6,7.07 15.88,0 30.43,-1.96 42.7,-5.61 -5.74,11.03 -10.07,22.59 -13.01,34.67 -5.56,23.19 -6.84,55.52 12.03,89.22 -39.23,19.52 -71.57,6.61 -83.67,0.15 13.15,-25.68 15.96,-55.55 7.99,-87.96 -3.24,-12.99 -7.79,-25.5 -13.64,-37.54zm-1.18 137.1c15.1,7.98 31.18,11.97 48.25,11.98 17.47,-0.09 33.95,-4.18 49.43,-12.26 2.09,2.99 4.35,5.99 6.79,8.98 -28.39,13.45 -56.25,17.31 -82.94,11.46 -10.05,-2.17 -19.57,-5.75 -28.56,-10.75 2.52,-3.06 4.86,-6.19 7.01,-9.41zm-16.7 19.36c10.78,6.51 22.31,11.11 34.61,13.81 9.12,2.04 18.36,3.05 27.71,3.04 19.09,0 42.45,-4.16 68.59,-17.26 10.09,9.22 17.88,20.09 23.39,32.6 5.5,12.51 8.24,25.6 8.23,39.27 0,53.62 -43.44,97.24 -96.84,97.24 -53.4,0 -96.84,-43.62 -96.84,-97.24 -0.02,-13.56 2.68,-26.56 8.1,-38.99 5.42,-12.43 13.11,-23.25 23.06,-32.46z"/>
 </g>
</svg>
