<?xml version="1.0" encoding="UTF-8"?>
<!DOCTYPE svg PUBLIC "-//W3C//DTD SVG 1.1//EN" "http://www.w3.org/Graphics/SVG/1.1/DTD/svg11.dtd">
<!-- Creator: CorelDRAW (Evaluation Version) -->
<svg xmlns="http://www.w3.org/2000/svg" xml:space="preserve" width="0.932941in" height="1.1726in" version="1.1" style="shape-rendering:geometricPrecision; text-rendering:geometricPrecision; image-rendering:optimizeQuality; fill-rule:evenodd; clip-rule:evenodd"
viewBox="0 0 215.25 270.55"
 xmlns:xlink="http://www.w3.org/1999/xlink"
 xmlns:xodm="http://www.corel.com/coreldraw/odm/2003">
 <defs>
  <style type="text/css">
   <![CDATA[
    .fil0 {fill:#E2C539;fill-rule:nonzero}
   ]]>
  </style>
 </defs>
 <g id="Layer_x0020_1">
  <metadata id="CorelCorpID_0Corel-Layer"/>
  <path class="fil0" d="M176.51 130.81l30.64 -36.86c1.6,-1.91 1.29,-4.8 -0.68,-6.34l-19.94 -15.32c-1.91,-1.48 -4.68,-1.11 -6.22,0.8l-3.69 4.8c-1.48,1.91 -1.11,4.68 0.8,6.15l7.63 5.91c1.97,1.54 2.28,4.43 0.68,6.34l-11.69 14.03c-1.54,1.78 -4.18,2.15 -6.03,0.68l-29.11 -22.03 9.05 -20.61 0.92 -2.15 -1.29 -1.91 -36.43 -54.7 -3.51 -5.23 -3.57 5.29 -36.43 54.77 -1.29 1.91 0.92 2.15 9.05 20.68 -29.17 21.97c-1.85,1.42 -4.55,1.11 -6.03,-0.68l-11.69 -14.03c-1.6,-1.91 -1.29,-4.8 0.74,-6.34l7.63 -5.85c1.91,-1.48 2.28,-4.25 0.8,-6.22l-3.69 -4.8c-1.48,-1.91 -4.25,-2.28 -6.22,-0.8l-19.94 15.32c-1.97,1.54 -2.28,4.43 -0.68,6.34l30.64 36.86c1.54,1.78 4.18,2.15 6.03,0.68l27.51 -20.8 -16.68 47.75 -0.68 1.91 1.11 1.72 19.63 31.01 -36.24 -21.35c-2.65,-1.54 -5.97,-1.29 -8.37,0.68l-18.95 15.94c-3.2,2.71 -3.45,7.45 -0.62,10.52 10.28,11.01 35.07,34.4 63.38,37.91 0.25,0 0.25,0.43 0,0.43l-15.08 0.8c-4.61,0.25 -8.86,3.14 -10.46,7.51 -0.61,1.72 -0.37,3.38 -0.06,5.23 1.29,8.55 -2.15,18.34 15.14,19.01 13.72,0.55 35.32,5.97 43.32,-26.27 8,32.24 29.54,26.83 43.32,26.27 17.29,-0.68 13.85,-10.46 15.14,-19.01 0.25,-1.85 0.55,-3.57 -0.06,-5.23 -1.54,-4.37 -5.78,-7.26 -10.46,-7.51l-15.2 -0.86c-0.25,0 -0.25,-0.37 0,-0.43 28.31,-3.51 53.1,-26.89 63.38,-37.91 2.83,-3.01 2.52,-7.81 -0.61,-10.52l-18.95 -15.94c-2.34,-1.97 -5.72,-2.28 -8.37,-0.68l-36.3 21.41 19.63 -31.01 1.11 -1.72 -0.68 -1.91 -16.61 -47.75 27.51 20.8c1.85,1.35 4.49,1.05 5.97,-0.8zm-20.92 29.11l-43.26 68.36c47.94,-13.91 65.29,-32.06 70.21,-38.58 0.98,-1.29 2.83,-1.42 4.06,-0.37 1.05,0.98 1.23,2.58 0.31,3.75 -17.66,23.38 -69.16,39.57 -77.96,42.21 -0.86,0.25 -1.72,0.25 -2.58,0 -8.8,-2.65 -60.3,-18.83 -77.96,-42.21 -0.86,-1.17 -0.74,-2.77 0.31,-3.75 1.17,-1.11 3.08,-0.92 4.06,0.37 4.92,6.52 22.27,24.67 70.21,38.58l-43.26 -68.36 18.77 -53.78 4.43 -12.68 -11.69 -26.71 36.43 -54.7 36.43 54.7 -11.69 26.71 4.43 12.68 18.77 53.78zm-22.77 -39.57c-1.78,0.61 -3.08,2.34 -3.08,4.37 0,2.58 2.09,4.68 4.62,4.68 0.55,0 1.05,-0.06 1.54,-0.25l-3.08 -8.8zm6.4 45.84c-2.58,0 -4.68,2.09 -4.68,4.61 0,1.48 0.68,2.77 1.78,3.63l4.92 -7.81c-0.61,-0.25 -1.35,-0.43 -2.03,-0.43zm-18.52 28.8c-2.52,0 -4.61,2.09 -4.61,4.68 0,1.54 0.74,2.95 1.97,3.75l4.92 -7.81c-0.68,-0.43 -1.48,-0.61 -2.28,-0.61zm-34.52 -14.4c-1.05,0 -1.97,0.37 -2.71,0.92l4.98 7.88c1.48,-0.8 2.4,-2.34 2.4,-4.06 0,-2.65 -2.09,-4.74 -4.68,-4.74zm-8.55 -46.15l-3.01 8.68c0.61,0.37 1.35,0.55 2.15,0.55 2.52,0 4.62,-2.09 4.62,-4.68 0,-2.28 -1.6,-4.18 -3.75,-4.55zm9.91 -28.49l-3.02 8.68c0.62,0.31 1.29,0.49 2.03,0.49 2.52,0 4.68,-2.09 4.68,-4.62 0,-2.22 -1.6,-4.06 -3.69,-4.55zm53.97 39.38c-0.74,0.25 -1.54,0.43 -2.34,0.43 -3.75,0 -6.77,-3.02 -6.77,-6.77 0,-3.01 1.91,-5.54 4.62,-6.46l-0.49 -1.35c-0.68,0.25 -1.48,0.37 -2.22,0.37 -3.69,0 -6.77,-3.01 -6.77,-6.77 0,-2.95 1.91,-5.48 4.55,-6.4l-0.49 -1.48c-0.68,0.25 -1.48,0.37 -2.22,0.37 -3.69,0 -6.77,-3.01 -6.77,-6.77 0,-2.95 1.91,-5.48 4.55,-6.4l-3.82 -11.01 11.14 -25.48 -26.83 -40.24 -26.83 40.18 11.14 25.48 -3.82 10.89c2.89,0.74 5.11,3.38 5.11,6.52 0,3.69 -3.02,6.77 -6.77,6.77 -0.98,0 -1.91,-0.19 -2.77,-0.55l-0.49 1.48c2.89,0.74 5.05,3.38 5.05,6.52 0,3.75 -3.02,6.77 -6.77,6.77 -0.98,0 -1.91,-0.18 -2.71,-0.55l-0.49 1.48c2.95,0.68 5.17,3.38 5.17,6.58 0,3.75 -3.02,6.77 -6.77,6.77 -1.05,0 -1.97,-0.25 -2.83,-0.61l-4.74 13.72 4 6.28c1.05,-0.68 2.28,-1.05 3.63,-1.05 3.69,0 6.77,3.01 6.77,6.77 0,2.4 -1.23,4.55 -3.14,5.72l1.97 3.08c1.11,-0.8 2.4,-1.23 3.88,-1.23 3.75,0 6.77,3.01 6.77,6.77 0,2.52 -1.35,4.68 -3.38,5.85l1.85 2.89c1.11,-0.74 2.4,-1.17 3.82,-1.17 3.75,0 6.77,3.02 6.77,6.77 0,2.46 -1.35,4.68 -3.32,5.85l9.05 14.28 9.17 -14.52c-1.78,-1.23 -2.95,-3.26 -2.95,-5.6 0,-3.75 3.02,-6.77 6.77,-6.77 1.23,0 2.4,0.37 3.38,0.92l1.85 -2.95c-1.78,-1.23 -2.95,-3.26 -2.95,-5.6 0,-3.75 3.02,-6.77 6.77,-6.77 1.23,0 2.46,0.37 3.45,0.98l1.97 -3.14c-1.66,-1.23 -2.77,-3.2 -2.77,-5.41 0,-3.75 3.01,-6.77 6.77,-6.77 1.17,0 2.22,0.31 3.2,0.8l3.82 -6.09 -4.74 -13.35zm-46.83 -71.13c-2.95,0 -5.29,-2.34 -5.29,-5.29 0,-2.95 2.4,-5.29 5.29,-5.29 2.89,0 5.29,2.34 5.29,5.29 0,2.89 -2.4,5.29 -5.29,5.29zm20.74 -5.29c0,-2.95 2.4,-5.29 5.29,-5.29 2.95,0 5.29,2.34 5.29,5.29 0,2.95 -2.4,5.29 -5.29,5.29 -2.89,0 -5.29,-2.4 -5.29,-5.29zm-32.8 51.32l-3.01 8.68c0.61,0.31 1.29,0.49 2.03,0.49 2.52,0 4.61,-2.09 4.61,-4.68 0,-2.22 -1.6,-4.06 -3.63,-4.49zm-5.85 45.97c-0.92,0 -1.78,0.25 -2.46,0.74l4.98 7.88c1.29,-0.8 2.15,-2.28 2.15,-3.94 -0.06,-2.58 -2.15,-4.68 -4.68,-4.68zm18.46 28.8c-0.98,0 -1.91,0.31 -2.71,0.86l4.98 7.81c1.42,-0.8 2.34,-2.34 2.34,-4.06 0.06,-2.58 -2.03,-4.61 -4.62,-4.61zm34.52 -14.4c-2.52,0 -4.61,2.09 -4.61,4.68 0,1.6 0.8,2.95 1.97,3.82l4.98 -7.88c-0.74,-0.43 -1.48,-0.62 -2.34,-0.62zm8 -46.03c-1.85,0.61 -3.2,2.4 -3.2,4.43 0,2.58 2.09,4.68 4.68,4.68 0.55,0 1.11,-0.12 1.6,-0.31l-3.08 -8.8zm-9.91 -28.43c-1.78,0.62 -3.14,2.34 -3.14,4.43 0,2.52 2.09,4.61 4.62,4.61 0.55,0 1.05,-0.06 1.54,-0.25l-3.02 -8.8zm37.91 -57.04c-0.37,0 -0.68,-0.18 -0.86,-0.49l-31.32 -46.95c-0.31,-0.49 -0.18,-1.17 0.31,-1.48 0.49,-0.31 1.17,-0.19 1.48,0.31l31.32 46.95c0.31,0.49 0.18,1.17 -0.31,1.48 -0.18,0.12 -0.37,0.18 -0.61,0.18zm2.77 -14.71c-0.37,0 -0.68,-0.18 -0.86,-0.49l-17.54 -26.21c-0.31,-0.49 -0.19,-1.17 0.31,-1.48 0.49,-0.31 1.17,-0.18 1.48,0.31l17.48 26.27c0.31,0.49 0.18,1.17 -0.31,1.48 -0.18,0.06 -0.37,0.12 -0.55,0.12zm-118.95 14.71c-0.18,0 -0.43,-0.06 -0.61,-0.18 -0.49,-0.31 -0.62,-0.98 -0.31,-1.48l31.32 -46.95c0.31,-0.49 0.98,-0.61 1.48,-0.31 0.49,0.31 0.62,0.98 0.31,1.48l-31.26 46.95c-0.25,0.31 -0.55,0.49 -0.92,0.49zm-2.71 -14.71c-0.19,0 -0.43,-0.06 -0.62,-0.18 -0.49,-0.31 -0.61,-0.98 -0.31,-1.48l17.48 -26.28c0.31,-0.49 0.98,-0.61 1.48,-0.31 0.49,0.31 0.61,0.98 0.31,1.48l-17.48 26.28c-0.18,0.31 -0.55,0.49 -0.86,0.49zm154.82 137.53c-0.31,0 -0.61,-0.12 -0.86,-0.43l-17.72 -22.77 17.48 -20.8c0.37,-0.43 1.05,-0.49 1.48,-0.12 0.43,0.37 0.49,1.05 0.12,1.48l-16.37 19.51 16.61 21.41c0.37,0.49 0.25,1.11 -0.18,1.48 -0.12,0.12 -0.31,0.25 -0.55,0.25zm12.61 0c-0.31,0 -0.61,-0.12 -0.86,-0.43l-17.72 -22.77 17.48 -20.8c0.37,-0.43 1.05,-0.49 1.48,-0.12 0.43,0.37 0.49,1.05 0.12,1.48l-16.37 19.51 16.61 21.41c0.37,0.49 0.25,1.11 -0.18,1.48 -0.06,0.12 -0.31,0.25 -0.55,0.25zm-200.36 0c-0.25,0 -0.49,-0.06 -0.68,-0.25 -0.43,-0.37 -0.49,-1.05 -0.12,-1.48l16.37 -19.51 -16.61 -21.41c-0.37,-0.49 -0.25,-1.11 0.19,-1.48 0.43,-0.37 1.11,-0.31 1.48,0.18l17.72 22.77 -17.54 20.74c-0.19,0.31 -0.49,0.43 -0.8,0.43zm-12.61 0c-0.25,0 -0.49,-0.06 -0.68,-0.25 -0.43,-0.37 -0.49,-1.05 -0.12,-1.48l16.37 -19.51 -16.68 -21.48c-0.37,-0.49 -0.25,-1.11 0.18,-1.48 0.43,-0.37 1.11,-0.31 1.48,0.18l17.72 22.77 -17.48 20.8c-0.25,0.31 -0.55,0.43 -0.8,0.43z"/>
 </g>
</svg>
