<?xml version="1.0" encoding="UTF-8"?>
<!DOCTYPE svg PUBLIC "-//W3C//DTD SVG 1.1//EN" "http://www.w3.org/Graphics/SVG/1.1/DTD/svg11.dtd">
<!-- Creator: CorelDRAW (Evaluation Version) -->
<svg xmlns="http://www.w3.org/2000/svg" xml:space="preserve" width="0.83276in" height="1.04676in" version="1.1" style="shape-rendering:geometricPrecision; text-rendering:geometricPrecision; image-rendering:optimizeQuality; fill-rule:evenodd; clip-rule:evenodd"
viewBox="0 0 175.01 219.98"
 xmlns:xlink="http://www.w3.org/1999/xlink"
 xmlns:xodm="http://www.corel.com/coreldraw/odm/2003">
 <defs>
  <style type="text/css">
   <![CDATA[
    .fil0 {fill:#1A1A1A;fill-rule:nonzero}
   ]]>
  </style>
 </defs>
 <g id="Layer_x0020_1">
  <metadata id="CorelCorpID_0Corel-Layer"/>
  <path class="fil0" d="M143.52 106.36l24.92 -29.97c1.3,-1.55 1.05,-3.9 -0.55,-5.15l-16.21 -12.46c-1.55,-1.2 -3.8,-0.9 -5.05,0.65l-3 3.9c-1.2,1.55 -0.9,3.8 0.65,5l6.2 4.8c1.6,1.25 1.85,3.6 0.55,5.15l-9.51 11.41c-1.25,1.45 -3.4,1.75 -4.9,0.55l-23.67 -17.91 7.36 -16.76 0.75 -1.75 -1.05 -1.55 -29.62 -44.48 -2.85 -4.25 -2.9 4.3 -29.62 44.53 -1.05 1.55 0.75 1.75 7.36 16.81 -23.72 17.86c-1.5,1.15 -3.7,0.9 -4.9,-0.55l-9.51 -11.41c-1.3,-1.55 -1.05,-3.9 0.6,-5.15l6.2 -4.75c1.55,-1.2 1.85,-3.45 0.65,-5.05l-3 -3.9c-1.2,-1.55 -3.45,-1.85 -5.05,-0.65l-16.21 12.46c-1.6,1.25 -1.85,3.6 -0.55,5.15l24.92 29.97c1.25,1.45 3.4,1.75 4.9,0.55l22.36 -16.91 -13.56 38.83 -0.55 1.55 0.9 1.4 15.96 25.22 -29.47 -17.36c-2.15,-1.25 -4.85,-1.05 -6.8,0.55l-15.41 12.96c-2.6,2.2 -2.8,6.05 -0.5,8.56 8.35,8.96 28.52,27.97 51.53,30.82 0.2,0 0.2,0.35 0,0.35l-12.26 0.65c-3.75,0.2 -7.2,2.55 -8.51,6.1 -0.5,1.4 -0.3,2.75 -0.05,4.25 1.05,6.95 -1.75,14.91 12.31,15.46 11.16,0.45 28.72,4.85 35.22,-21.36 6.5,26.22 24.02,21.81 35.22,21.36 14.06,-0.55 11.26,-8.51 12.31,-15.46 0.2,-1.5 0.45,-2.9 -0.05,-4.25 -1.25,-3.55 -4.7,-5.9 -8.51,-6.1l-12.36 -0.7c-0.2,0 -0.2,-0.3 0,-0.35 23.01,-2.85 43.18,-21.86 51.53,-30.82 2.3,-2.45 2.05,-6.35 -0.5,-8.56l-15.41 -12.96c-1.9,-1.6 -4.65,-1.85 -6.8,-0.55l-29.52 17.41 15.96 -25.22 0.9 -1.4 -0.55 -1.55 -13.51 -38.83 22.36 16.91c1.5,1.1 3.65,0.85 4.85,-0.65zm31.49 32.39l0 0.29c-0.04,0.2 -0.15,0.39 -0.32,0.54 -0.05,0.1 -0.25,0.2 -0.45,0.2 -0.25,0 -0.5,-0.1 -0.7,-0.35l-14.41 -18.51 14.21 -16.91c0.3,-0.35 0.85,-0.4 1.2,-0.1 0.35,0.3 0.4,0.85 0.1,1.2l-13.31 15.86 13.51 17.41c0.09,0.12 0.14,0.24 0.16,0.37zm-48.5 -8.73l-35.17 55.59c38.97,-11.31 53.08,-26.07 57.09,-31.37 0.8,-1.05 2.3,-1.15 3.3,-0.3 0.85,0.8 1,2.1 0.25,3.05 -14.36,19.01 -56.24,32.17 -63.39,34.32 -0.7,0.2 -1.4,0.2 -2.1,0 -7.16,-2.15 -49.03,-15.31 -63.39,-34.32 -0.7,-0.95 -0.6,-2.25 0.25,-3.05 0.95,-0.9 2.5,-0.75 3.3,0.3 4,5.3 18.11,20.06 57.09,31.37l-35.17 -55.59 15.26 -43.73 3.6 -10.31 -9.51 -21.71 29.62 -44.48 29.62 44.48 -9.51 21.71 3.6 10.31 15.26 43.73zm-18.51 -32.17c-1.45,0.5 -2.5,1.9 -2.5,3.55 0,2.1 1.7,3.8 3.75,3.8 0.45,0 0.85,-0.05 1.25,-0.2l-2.5 -7.16zm5.2 37.27c-2.1,0 -3.8,1.7 -3.8,3.75 0,1.2 0.55,2.25 1.45,2.95l4 -6.35c-0.5,-0.2 -1.1,-0.35 -1.65,-0.35zm-15.06 23.41c-2.05,0 -3.75,1.7 -3.75,3.8 0,1.25 0.6,2.4 1.6,3.05l4 -6.35c-0.55,-0.35 -1.2,-0.5 -1.85,-0.5zm-28.07 -11.71c-0.85,0 -1.6,0.3 -2.2,0.75l4.05 6.4c1.2,-0.65 1.95,-1.9 1.95,-3.3 0,-2.15 -1.7,-3.85 -3.8,-3.85zm-6.95 -37.52l-2.45 7.05c0.5,0.3 1.1,0.45 1.75,0.45 2.05,0 3.75,-1.7 3.75,-3.8 0,-1.85 -1.3,-3.4 -3.05,-3.7zm8.05 -23.16l-2.45 7.05c0.5,0.25 1.05,0.4 1.65,0.4 2.05,0 3.8,-1.7 3.8,-3.75 0,-1.8 -1.3,-3.3 -3,-3.7zm43.88 32.02c-0.6,0.2 -1.25,0.35 -1.9,0.35 -3.05,0 -5.5,-2.45 -5.5,-5.5 0,-2.45 1.55,-4.5 3.75,-5.25l-0.4 -1.1c-0.55,0.2 -1.2,0.3 -1.8,0.3 -3,0 -5.5,-2.45 -5.5,-5.5 0,-2.4 1.55,-4.45 3.7,-5.2l-0.4 -1.2c-0.55,0.2 -1.2,0.3 -1.8,0.3 -3,0 -5.5,-2.45 -5.5,-5.5 0,-2.4 1.55,-4.45 3.7,-5.2l-3.1 -8.96 9.06 -20.71 -21.81 -32.72 -21.81 32.67 9.06 20.71 -3.1 8.86c2.35,0.6 4.15,2.75 4.15,5.3 0,3 -2.45,5.5 -5.5,5.5 -0.8,0 -1.55,-0.15 -2.25,-0.45l-0.4 1.2c2.35,0.6 4.1,2.75 4.1,5.3 0,3.05 -2.45,5.5 -5.5,5.5 -0.8,0 -1.55,-0.15 -2.2,-0.45l-0.4 1.2c2.4,0.55 4.2,2.75 4.2,5.35 0,3.05 -2.45,5.5 -5.5,5.5 -0.85,0 -1.6,-0.2 -2.3,-0.5l-3.85 11.16 3.25 5.1c0.85,-0.55 1.85,-0.85 2.95,-0.85 3,0 5.5,2.45 5.5,5.5 0,1.95 -1,3.7 -2.55,4.65l1.6 2.5c0.9,-0.65 1.95,-1 3.15,-1 3.05,0 5.5,2.45 5.5,5.5 0,2.05 -1.1,3.8 -2.75,4.75l1.5 2.35c0.9,-0.6 1.95,-0.95 3.1,-0.95 3.05,0 5.5,2.45 5.5,5.5 0,2 -1.1,3.8 -2.7,4.75l7.36 11.61 7.45 -11.81c-1.45,-1 -2.4,-2.65 -2.4,-4.55 0,-3.05 2.45,-5.5 5.5,-5.5 1,0 1.95,0.3 2.75,0.75l1.5 -2.4c-1.45,-1 -2.4,-2.65 -2.4,-4.55 0,-3.05 2.45,-5.5 5.5,-5.5 1,0 2,0.3 2.8,0.8l1.6 -2.55c-1.35,-1 -2.25,-2.6 -2.25,-4.4 0,-3.05 2.45,-5.5 5.5,-5.5 0.95,0 1.8,0.25 2.6,0.65l3.1 -4.95 -3.85 -10.86zm-38.07 -57.84c-2.4,0 -4.3,-1.9 -4.3,-4.3 0,-2.4 1.95,-4.3 4.3,-4.3 2.35,0 4.3,1.9 4.3,4.3 0,2.35 -1.95,4.3 -4.3,4.3zm16.86 -4.3c0,-2.4 1.95,-4.3 4.3,-4.3 2.4,0 4.3,1.9 4.3,4.3 0,2.4 -1.95,4.3 -4.3,4.3 -2.35,0 -4.3,-1.95 -4.3,-4.3zm-26.67 41.73l-2.45 7.05c0.5,0.25 1.05,0.4 1.65,0.4 2.05,0 3.75,-1.7 3.75,-3.8 0,-1.8 -1.3,-3.3 -2.95,-3.65zm-4.75 37.37c-0.75,0 -1.45,0.2 -2,0.6l4.05 6.4c1.05,-0.65 1.75,-1.85 1.75,-3.2 -0.05,-2.1 -1.75,-3.8 -3.8,-3.8zm15.01 23.41c-0.8,0 -1.55,0.25 -2.2,0.7l4.05 6.35c1.15,-0.65 1.9,-1.9 1.9,-3.3 0.05,-2.1 -1.65,-3.75 -3.75,-3.75zm28.07 -11.71c-2.05,0 -3.75,1.7 -3.75,3.8 0,1.3 0.65,2.4 1.6,3.1l4.05 -6.4c-0.6,-0.35 -1.2,-0.5 -1.9,-0.5zm6.5 -37.42c-1.5,0.5 -2.6,1.95 -2.6,3.6 0,2.1 1.7,3.8 3.8,3.8 0.45,0 0.9,-0.1 1.3,-0.25l-2.5 -7.16zm-8.06 -23.11c-1.45,0.5 -2.55,1.9 -2.55,3.6 0,2.05 1.7,3.75 3.75,3.75 0.45,0 0.85,-0.05 1.25,-0.2l-2.45 -7.16zm30.82 -46.38c-0.3,0 -0.55,-0.15 -0.7,-0.4l-25.47 -38.17c-0.25,-0.4 -0.15,-0.95 0.25,-1.2 0.4,-0.25 0.95,-0.15 1.2,0.25l25.47 38.17c0.25,0.4 0.15,0.95 -0.25,1.2 -0.15,0.1 -0.3,0.15 -0.5,0.15zm2.25 -11.96c-0.3,0 -0.55,-0.15 -0.7,-0.4l-14.26 -21.31c-0.25,-0.4 -0.15,-0.95 0.25,-1.2 0.4,-0.25 0.95,-0.15 1.2,0.25l14.21 21.36c0.25,0.4 0.15,0.95 -0.25,1.2 -0.15,0.05 -0.3,0.1 -0.45,0.1zm-96.71 11.96c-0.15,0 -0.35,-0.05 -0.5,-0.15 -0.4,-0.25 -0.5,-0.8 -0.25,-1.2l25.47 -38.17c0.25,-0.4 0.8,-0.5 1.2,-0.25 0.4,0.25 0.5,0.8 0.25,1.2l-25.42 38.17c-0.2,0.25 -0.45,0.4 -0.75,0.4zm-2.2 -11.96c-0.15,0 -0.35,-0.05 -0.5,-0.15 -0.4,-0.25 -0.5,-0.8 -0.25,-1.2l14.21 -21.36c0.25,-0.4 0.8,-0.5 1.2,-0.25 0.4,0.25 0.5,0.8 0.25,1.2l-14.21 21.36c-0.15,0.25 -0.45,0.4 -0.7,0.4zm125.88 111.82c-0.25,0 -0.5,-0.1 -0.7,-0.35l-14.41 -18.51 14.21 -16.91c0.3,-0.35 0.85,-0.4 1.2,-0.1 0.35,0.3 0.4,0.85 0.1,1.2l-13.31 15.86 13.51 17.41c0.3,0.4 0.2,0.9 -0.15,1.2 -0.1,0.1 -0.25,0.2 -0.45,0.2zm-152.65 0c-0.2,0 -0.4,-0.05 -0.55,-0.2 -0.35,-0.3 -0.4,-0.85 -0.1,-1.2l13.31 -15.86 -13.51 -17.41c-0.3,-0.4 -0.2,-0.9 0.15,-1.2 0.35,-0.3 0.9,-0.25 1.2,0.15l14.41 18.51 -14.26 16.86c-0.15,0.25 -0.4,0.35 -0.65,0.35zm-10.26 0c-0.2,0 -0.4,-0.05 -0.55,-0.2 -0.35,-0.3 -0.4,-0.85 -0.1,-1.2l13.31 -15.86 -13.56 -17.46c-0.3,-0.4 -0.2,-0.9 0.15,-1.2 0.35,-0.3 0.9,-0.25 1.2,0.15l14.41 18.51 -14.21 16.91c-0.2,0.25 -0.45,0.35 -0.65,0.35z"/>
 </g>
</svg>
