<?xml version="1.0" encoding="UTF-8"?>
<!DOCTYPE svg PUBLIC "-//W3C//DTD SVG 1.1//EN" "http://www.w3.org/Graphics/SVG/1.1/DTD/svg11.dtd">
<!-- Creator: CorelDRAW (Evaluation Version) -->
<svg xmlns="http://www.w3.org/2000/svg" xml:space="preserve" width="1.14321in" height="1.06208in" version="1.1" style="shape-rendering:geometricPrecision; text-rendering:geometricPrecision; image-rendering:optimizeQuality; fill-rule:evenodd; clip-rule:evenodd"
viewBox="0 0 303.93 282.37"
 xmlns:xlink="http://www.w3.org/1999/xlink"
 xmlns:xodm="http://www.corel.com/coreldraw/odm/2003">
 <defs>
  <style type="text/css">
   <![CDATA[
    .fil0 {fill:#E2C539;fill-rule:nonzero}
   ]]>
  </style>
 </defs>
 <g id="Layer_x0020_1">
  <metadata id="CorelCorpID_0Corel-Layer"/>
  <path class="fil0" d="M303.6 153.61l-150.74 -153.27c-0.45,-0.45 -1.3,-0.45 -1.75,0l-150.74 153.33c-0.84,0.84 -0.13,2.21 1.04,2.01 2.6,-0.39 6.43,-0.97 11.49,-1.62l0 39.6 11.69 6.62 0 -46.09c0,-0.91 0.65,-1.75 1.62,-1.82 5,-0.59 10.58,-1.23 16.75,-1.82 1.1,-0.13 2.01,0.71 2.01,1.82l0 59.33c0,0 11.69,7.01 11.69,7.01l0 -69.46c6.36,-0.59 13.18,-1.1 20.38,-1.62 0,0 0,81.86 0,81.86l11.69 6.49 0 -87.38c0,-0.97 0.71,-1.75 1.69,-1.82 8.5,-0.52 17.46,-0.97 26.75,-1.3 1.04,0 1.88,0.84 1.88,1.82l0 135.05 15.39 0 0 -33.78 33.37 0 0 33.78 15.39 0 0 -137.32c9.35,0.19 18.96,0.58 28.63,1.1 0.97,0.06 1.75,0.84 1.75,1.82l0 88.03 11.69 -6.49 0 -82.57c6.23,0.39 12.4,0.91 18.7,1.43 0.97,0.06 1.69,0.91 1.69,1.82l0 68.55 11.69 -7.01 0 -62.06c6.75,0.71 13.57,1.49 20.38,2.4l0 48.3 11.69 -6.62c0,0 0,-8.63 0,-8.63l0 -31.42c4.28,0.65 8.57,1.3 12.85,2.01 0.94,0.09 1.6,-0.48 1.7,-1.11l0 -0.33c-0.03,-0.22 -0.14,-0.45 -0.34,-0.64zm-2.14 128.76l-6.17 0 0 -86.49 6.17 0 0 86.49zm-9.93 0l-6.17 0 0 -81.76 6.17 0 0 81.76zm-9.8 0l-6.17 0 0 -76.3 6.17 0 0 76.3zm-9.93 0l-6.17 0 0 -68.71 6.17 0 0 68.71zm-9.87 0l-6.17 0 0 -62.02 6.17 0 0 62.02zm-9.87 0l-6.17 0 0 -56.57 6.17 0 0 56.57zm-9.87 0l-6.17 0 0 -52.87 6.17 0 0 52.87zm-9.87 0l-6.17 0 0 -47.61 6.17 0 0 47.61zm-9.93 0l-6.17 0 0 -41.18 6.17 0 0 41.18zm-134.64 0l-6.17 0 0 -41.18 6.17 0 0 41.18zm-9.87 0l-6.17 0 0 -47.61 6.17 0 0 47.61zm-9.87 0l-6.17 0 0 -52.87 6.17 0 0 52.87zm-9.87 0l-6.17 0 0 -56.57 6.17 0 0 56.57zm-9.93 0l-6.17 0 0 -62.02 6.17 0 0 62.02zm-9.8 0l-6.17 0 0 -68.71 6.17 0 0 68.71zm-9.87 0l-6.17 0 0 -76.3 -0.06 0 6.23 0 0 76.3zm-9.93 0l-6.17 0 0 -81.76 6.17 0 0 81.76zm-9.87 0l-6.17 0 0 -86.49 6.17 0 0 86.49zm159.24 -35.73c0,0.06 0,0.06 0,0l-33.37 0 0 -9.09c0,-1.04 0.84,-1.82 1.82,-1.82l29.67 0c1.04,0 1.82,0.84 1.82,1.82l0 9.09 0.06 0zm-33.37 -14.67l0 -86.99c1.49,0 3.05,-0.06 4.54,-0.06l0 88.87 -2.66 0c-1.1,0.06 -1.88,-0.78 -1.88,-1.82zm6.23 -52.71l3.25 -6.23 3.25 6.36 -3.25 6.23 -3.25 -6.36zm8.24 54.6l0 -89.07 5.78 0 0 89.07 -5.78 0zm7.59 -54.6l3.25 -6.23 3.25 6.36 -3.25 6.23 -3.25 -6.36zm11.3 52.71c0,1.04 -0.84,1.82 -1.82,1.82l-1.3 0 0 -89 1.3 0c1.04,0 1.82,0.84 1.82,1.82l0 85.37zm121.92 -79.46c-6.56,-5.26 -12.66,-11.04 -18.7,-16.81 -5.97,-5.84 -11.88,-11.75 -17.4,-18.05 -5.52,-6.3 -10.58,-12.98 -16.23,-19.15 -5.65,-6.17 -11.62,-12.07 -17.72,-17.72 -6.17,-5.65 -12.2,-11.42 -18.11,-17.4 -5.32,-5.26 -10.58,-10.65 -15.77,-16.04 2.66,3.57 5.19,7.14 7.79,10.78 4.29,5.97 8.37,12.07 12.27,18.24 3.96,6.17 8.12,12.2 12.72,17.98 4.54,5.78 9.67,11.04 14.35,16.68 4.67,5.65 8.96,11.62 13.11,17.66 4.09,6.1 8.11,12.27 11.68,18.76l-0.45 0.32c-5.26,-5.19 -10.06,-10.78 -14.8,-16.42 -4.67,-5.65 -9.22,-11.43 -13.37,-17.46 -4.15,-6.1 -7.79,-12.53 -12.07,-18.44 -4.22,-5.97 -8.89,-11.69 -13.76,-17.2 -4.87,-5.52 -9.61,-11.1 -14.15,-16.88 -4.61,-5.71 -9.09,-11.49 -13.5,-17.4 -1.49,-2.01 -2.92,-4.02 -4.35,-6.1 0.45,0.78 0.91,1.56 1.36,2.34 3.12,5.78 5.97,11.62 8.83,17.53 2.92,5.84 5.58,11.82 8.12,17.85 2.6,6.04 5.39,11.94 8.57,17.66 3.18,5.71 7.08,11.1 10.45,16.68 1.69,2.79 3.25,5.65 4.67,8.57 1.49,2.92 2.92,5.84 4.28,8.83 2.73,5.97 5.39,11.94 7.47,18.24l-0.52 0.26c-4.03,-5.26 -7.53,-10.84 -10.84,-16.49 -1.69,-2.79 -3.31,-5.65 -4.87,-8.5 -1.62,-2.86 -3.05,-5.78 -4.41,-8.76 -2.79,-5.97 -5,-12.14 -7.86,-18.05 -2.86,-5.91 -6.17,-11.49 -9.67,-17.07 -3.57,-5.52 -7.01,-11.1 -10.19,-16.81 -3.25,-5.65 -6.43,-11.36 -9.48,-17.2 -3.57,-7.08 -6.95,-14.28 -10.06,-21.62 1.95,6.3 3.7,12.59 5.32,18.96 1.43,5.71 2.47,11.43 3.57,17.2 1.17,5.71 2.01,11.49 2.79,17.33 0.78,5.84 1.82,11.62 3.31,17.2 1.49,5.65 3.7,11.17 5.32,16.75 0.84,2.79 1.56,5.65 2.14,8.5 0.58,2.86 1.17,5.71 1.69,8.63 0.91,5.78 1.82,11.56 2.01,17.53l-0.58 0.13c-2.4,-5.45 -4.15,-11.04 -5.84,-16.68 -0.84,-2.79 -1.56,-5.65 -2.27,-8.5 -0.71,-2.86 -1.3,-5.71 -1.82,-8.57 -0.91,-5.78 -1.36,-11.69 -2.47,-17.4 -1.1,-5.71 -2.73,-11.36 -4.54,-16.94 -1.82,-5.58 -3.57,-11.17 -5.06,-16.81 -1.49,-5.65 -3.05,-11.3 -4.29,-17.01 -1.17,-5.71 -2.21,-11.42 -3.12,-17.14 -0.32,-2.08 -3.31,-2.08 -3.57,0 -0.91,5.78 -2.01,11.49 -3.25,17.2 -1.23,5.71 -2.86,11.36 -4.41,17.01 -1.49,5.65 -3.25,11.23 -5.13,16.81 -1.88,5.58 -3.51,11.17 -4.67,16.94 -1.17,5.71 -1.62,11.62 -2.6,17.4 -0.52,2.92 -1.1,5.78 -1.88,8.57 -0.71,2.86 -1.49,5.65 -2.34,8.5 -1.69,5.65 -3.51,11.17 -5.91,16.62l-0.58 -0.13c0.26,-5.91 1.17,-11.75 2.14,-17.53 0.52,-2.86 1.1,-5.78 1.69,-8.63 0.59,-2.86 1.36,-5.71 2.21,-8.5 1.69,-5.65 3.96,-11.1 5.45,-16.75 1.56,-5.65 2.6,-11.43 3.44,-17.2 0.84,-5.84 1.75,-11.62 2.92,-17.33 1.17,-5.71 2.27,-11.49 3.7,-17.14 1.69,-6.36 3.51,-12.72 5.52,-19.02 -3.18,7.4 -6.69,14.61 -10.32,21.75 -2.79,5.91 -6.04,11.62 -9.28,17.27 -3.25,5.71 -6.69,11.29 -10.26,16.81 -3.57,5.52 -6.95,11.17 -9.87,17.07 -2.92,5.84 -5.19,12.07 -7.99,18.05 -1.36,2.99 -2.86,5.91 -4.48,8.76 -1.62,2.86 -3.25,5.71 -4.93,8.5 -3.44,5.65 -6.95,11.17 -10.97,16.42l-0.52 -0.26c2.14,-6.3 4.8,-12.33 7.6,-18.31 1.36,-2.92 2.86,-5.91 4.35,-8.83 1.49,-2.92 3.05,-5.78 4.8,-8.57 3.44,-5.65 7.34,-10.97 10.52,-16.68 3.25,-5.71 6.1,-11.62 8.7,-17.66 2.6,-6.1 5.32,-12.07 8.31,-17.92 2.86,-5.91 5.78,-11.75 8.96,-17.53 0.06,-0.13 0.13,-0.26 0.19,-0.39 -0.97,1.36 -1.95,2.73 -2.86,4.09 -4.35,5.91 -8.89,11.62 -13.5,17.4 -4.54,5.78 -9.28,11.36 -14.09,16.88 -4.8,5.52 -9.48,11.23 -13.7,17.2 -4.28,5.97 -7.92,12.33 -12.07,18.44 -4.16,6.1 -8.63,11.82 -13.31,17.53 -4.67,5.65 -9.48,11.23 -14.74,16.42l-0.45 -0.32c3.51,-6.49 7.53,-12.66 11.62,-18.76 4.15,-6.04 8.44,-12.01 13.05,-17.66 4.67,-5.65 9.87,-10.91 14.35,-16.68 4.54,-5.71 8.7,-11.82 12.72,-17.98 3.96,-6.17 7.99,-12.33 12.27,-18.24 2.66,-3.7 5.26,-7.47 7.99,-11.1 -5.26,5.58 -10.65,10.97 -16.03,16.42 -5.84,5.97 -11.94,11.68 -18.05,17.4 -6.17,5.71 -12.14,11.56 -17.72,17.72 -5.65,6.17 -10.71,12.85 -16.23,19.15 -5.52,6.23 -11.43,12.2 -17.4,18.05 -6.04,5.78 -12.14,11.56 -18.7,16.81l-0.39 -0.39c5,-6.82 10.39,-13.18 15.84,-19.48 5.52,-6.3 11.17,-12.46 17.14,-18.31 6.04,-5.78 12.46,-11.23 18.31,-17.14 5.91,-5.91 11.43,-12.2 16.81,-18.63 5.32,-6.43 10.78,-12.79 16.42,-18.96 5.58,-6.23 11.23,-12.4 17.01,-18.44 11.69,-11.94 23.69,-23.56 36.55,-34.47l0.19 0.19 0.19 -0.19c12.85,10.84 24.86,22.46 36.55,34.47 5.78,5.97 11.42,12.14 17.01,18.44 5.65,6.17 11.1,12.46 16.42,18.96 5.32,6.43 10.91,12.66 16.81,18.63 5.91,5.97 12.33,11.36 18.31,17.14 5.97,5.84 11.62,12.01 17.14,18.31 5.52,6.3 10.91,12.66 15.84,19.48l-0.39 0.32zm-273.17 129.12l-2.34 0 0 -79.13 2.34 0 0 79.13zm19.73 0l-2.34 0 0 -66.09 2.34 0 0 66.09zm19.8 0l-2.4 0 0 -53.88 2.4 0 0 53.88zm19.73 0l-2.4 0 0 -44.92 2.4 0 0 44.92zm213.64 0l-2.34 0 0 -79.13 2.34 0 0 79.13zm-19.74 0l-2.34 0 0 -66.09 2.34 0 0 66.09zm-19.8 0l-2.34 0 0 -53.88 2.34 0 0 53.88zm-19.74 0l-2.34 0 0 -44.92 2.34 0 0 44.92z"/>
 </g>
</svg>
