<?xml version="1.0" encoding="UTF-8"?>
<!DOCTYPE svg PUBLIC "-//W3C//DTD SVG 1.1//EN" "http://www.w3.org/Graphics/SVG/1.1/DTD/svg11.dtd">
<!-- Creator: CorelDRAW (Evaluation Version) -->
<svg xmlns="http://www.w3.org/2000/svg" xml:space="preserve" width="0.378382in" height="0.947846in" version="1.1" style="shape-rendering:geometricPrecision; text-rendering:geometricPrecision; image-rendering:optimizeQuality; fill-rule:evenodd; clip-rule:evenodd"
viewBox="0 0 236.05 591.3"
 xmlns:xlink="http://www.w3.org/1999/xlink"
 xmlns:xodm="http://www.corel.com/coreldraw/odm/2003">
 <defs>
  <style type="text/css">
   <![CDATA[
    .fil0 {fill:#E2C539;fill-rule:nonzero}
   ]]>
  </style>
 </defs>
 <g id="Layer_x0020_1">
  <metadata id="CorelCorpID_0Corel-Layer"/>
  <path class="fil0" d="M0 412.23c0,10.74 1.43,21.29 4.3,31.65 2.87,10.35 7.06,20.14 12.59,29.35 5.53,9.22 12.18,17.52 19.96,24.93 7.78,7.41 16.41,13.64 25.89,18.7 -15.92,7.62 -24.73,18.73 -24.73,31.8 0,12.43 9.01,23.69 25.36,31.71 12.58,6.17 28.6,9.97 45.81,10.94l17.68 0c17.21,-0.97 33.22,-4.77 45.81,-10.94 16.35,-8.02 25.36,-19.28 25.36,-31.71 0,-11.96 -9.42,-23.27 -25.44,-31.41 4.29,-2.25 8.42,-4.76 12.4,-7.52 3.98,-2.76 7.78,-5.75 11.39,-8.98 3.61,-3.22 7.02,-6.66 10.21,-10.3 3.19,-3.64 6.15,-7.47 8.88,-11.47 2.73,-4.01 5.2,-8.16 7.41,-12.47 2.22,-4.31 4.16,-8.73 5.84,-13.28 1.68,-4.54 3.07,-9.18 4.17,-13.89 1.11,-4.72 1.92,-9.48 2.45,-14.3 0.52,-4.82 0.75,-9.64 0.69,-14.49 -0.07,-4.85 -0.43,-9.67 -1.09,-14.47 -0.66,-4.8 -1.61,-9.54 -2.84,-14.22 -1.24,-4.68 -2.76,-9.27 -4.56,-13.77 -1.8,-4.5 -3.87,-8.87 -6.21,-13.11 -2.34,-4.24 -4.92,-8.33 -7.76,-12.26 -2.84,-3.93 -5.9,-7.67 -9.2,-11.22 -3.3,-3.55 -6.79,-6.89 -10.5,-10.01 -29.71,-32.89 -39.94,-70.08 -30.41,-110.55 4.5,-18.65 12.28,-35.82 23.32,-51.51 1.9,-1.27 3.7,-2.65 5.42,-4.15 1.01,-0.9 1.9,-1.9 2.67,-3 0.77,-1.11 1.41,-2.28 1.91,-3.54 0.5,-1.26 0.84,-2.55 1.04,-3.88 0.2,-1.33 0.24,-2.67 0.12,-4.02 -0.12,-1.34 -0.39,-2.65 -0.81,-3.94 -0.42,-1.28 -0.99,-2.5 -1.7,-3.64 -0.71,-1.15 -1.54,-2.2 -2.49,-3.15 -0.96,-0.96 -2,-1.79 -3.15,-2.5 -0.71,-0.44 -1.45,-0.82 -2.22,-1.15 -1.03,-5.26 -2.74,-10.29 -5.12,-15.08 2.99,-0.02 5.95,-0.33 8.88,-0.93 2.93,-0.6 5.77,-1.48 8.52,-2.64 2.76,-1.16 5.37,-2.57 7.85,-4.25 2.48,-1.67 4.77,-3.57 6.87,-5.69 2.1,-2.12 3.98,-4.43 5.64,-6.92 1.65,-2.49 3.04,-5.12 4.18,-7.88 1.13,-2.77 1.99,-5.61 2.57,-8.55 0.57,-2.93 0.86,-5.89 0.85,-8.88 -0,-2.99 -0.3,-5.95 -0.89,-8.88 -0.59,-2.93 -1.45,-5.78 -2.6,-8.54 -1.15,-2.76 -2.55,-5.38 -4.21,-7.87 -1.66,-2.49 -3.55,-4.79 -5.66,-6.9 -2.11,-2.11 -4.41,-4 -6.9,-5.67 -2.48,-1.66 -5.1,-3.07 -7.86,-4.22 -2.76,-1.15 -5.6,-2.02 -8.53,-2.61 -2.93,-0.59 -5.89,-0.89 -8.88,-0.9 -6.78,-0 -13.23,1.47 -19.35,4.4 -9.3,-14.88 -25.68,-24.44 -42.93,-24.44 -4.49,-0 -8.9,0.58 -13.23,1.76 -4.33,1.18 -8.43,2.91 -12.29,5.19 -3.87,2.28 -7.36,5.03 -10.49,8.24 -3.13,3.22 -5.78,6.79 -7.95,10.72 -1.73,-0.98 -3.51,-1.83 -5.35,-2.57 -1.84,-0.74 -3.72,-1.36 -5.64,-1.86 -1.92,-0.5 -3.86,-0.86 -5.83,-1.11 -1.97,-0.24 -3.94,-0.35 -5.92,-0.34 -1.98,0.01 -3.95,0.16 -5.92,0.43 -1.96,0.28 -3.9,0.68 -5.81,1.2 -1.91,0.53 -3.78,1.18 -5.6,1.95 -1.82,0.77 -3.59,1.66 -5.3,2.66 -1.71,1 -3.35,2.11 -4.91,3.33 -1.56,1.22 -3.04,2.53 -4.44,3.94 -1.39,1.41 -2.69,2.91 -3.89,4.48 -1.2,1.58 -2.29,3.23 -3.27,4.95 -0.98,1.72 -1.84,3.5 -2.59,5.33 -0.75,1.84 -1.38,3.71 -1.88,5.63 -0.5,1.92 -0.88,3.86 -1.13,5.83 -0.25,1.96 -0.37,3.94 -0.36,5.92 0,2.88 0.27,5.73 0.81,8.55 0.54,2.82 1.34,5.58 2.39,8.25 1.06,2.67 2.36,5.22 3.9,7.65 1.54,2.43 3.29,4.69 5.26,6.79 1.97,2.1 4.11,3.99 6.44,5.69 2.33,1.69 4.79,3.15 7.39,4.38 2.6,1.23 5.29,2.2 8.08,2.92 2.79,0.72 5.61,1.17 8.48,1.35 -2.49,5.32 -3.96,10.9 -4.42,16.75 -0.12,0.08 -0.25,0.14 -0.38,0.22 -2.24,1.4 -4.06,3.22 -5.47,5.46 -1.41,2.23 -2.26,4.66 -2.57,7.29 -0.3,2.62 -0.02,5.18 0.84,7.68 0.86,2.5 2.22,4.69 4.08,6.56 11.19,17.61 19.33,36.54 24.43,56.77 10.61,43.18 2.1,80 -25.29,109.45 -6.62,5.56 -12.55,11.78 -17.81,18.64 -5.25,6.86 -9.7,14.22 -13.35,22.06 -3.64,7.84 -6.4,15.98 -8.25,24.43 -1.86,8.44 -2.79,16.99 -2.77,25.63zm183.6 136.42c0,13.46 -26.93,28.47 -65.58,28.47 -38.65,0 -65.58,-15.01 -65.58,-28.47 0,-9.71 11.04,-18.45 29.66,-23.59 11.65,3.74 23.6,5.61 35.84,5.62 12.24,0.01 24.19,-1.85 35.85,-5.57 17.4,5.64 29.82,15.36 29.82,23.53zm-1.3 -514.17c4.14,0 8.12,0.79 11.95,2.38 3.83,1.59 7.2,3.84 10.13,6.77 2.93,2.93 5.18,6.3 6.77,10.13 1.58,3.83 2.38,7.81 2.38,11.95 0,4.14 -0.79,8.12 -2.38,11.95 -1.58,3.83 -3.84,7.21 -6.77,10.13 -2.93,2.93 -6.3,5.19 -10.13,6.77 -3.83,1.58 -7.81,2.38 -11.95,2.38 -5.18,0 -10.05,-1.22 -14.61,-3.67 -1.27,-12.75 -6.62,-23.46 -16.05,-32.14 2.49,-14.98 15.59,-26.67 30.66,-26.67zm-100.53 63.82c0.01,-2.35 0.25,-4.68 0.72,-6.99 0.47,-2.31 1.16,-4.54 2.07,-6.71 0.91,-2.17 2.02,-4.23 3.34,-6.18 1.32,-1.95 2.81,-3.76 4.48,-5.41 1.67,-1.66 3.49,-3.14 5.45,-4.44 1.96,-1.3 4.03,-2.4 6.21,-3.29 2.18,-0.89 4.42,-1.56 6.73,-2.02 2.31,-0.45 4.64,-0.67 6.99,-0.67 2.35,0.01 4.68,0.24 6.99,0.71 2.31,0.46 4.54,1.15 6.71,2.06 2.17,0.91 4.23,2.01 6.19,3.33 1.95,1.31 3.76,2.8 5.42,4.47 1.66,1.67 3.14,3.48 4.44,5.44 1.3,1.96 2.4,4.03 3.3,6.2 0.9,2.18 1.57,4.42 2.03,6.73 0.46,2.31 0.68,4.64 0.68,6.99 -0,2.35 -0.24,4.68 -0.7,6.99 -0.46,2.31 -1.14,4.55 -2.05,6.72 -0.9,2.17 -2.01,4.24 -3.32,6.19 -1.31,1.96 -2.8,3.76 -4.46,5.43 -1.67,1.66 -3.48,3.15 -5.43,4.45 -1.96,1.31 -4.02,2.41 -6.2,3.31 -2.18,0.9 -4.42,1.58 -6.72,2.04 -2.31,0.46 -4.64,0.69 -6.99,0.69 -2.36,-0.01 -4.7,-0.25 -7.01,-0.71 -2.31,-0.47 -4.56,-1.16 -6.74,-2.07 -2.18,-0.91 -4.25,-2.02 -6.2,-3.34 -1.96,-1.32 -3.77,-2.81 -5.44,-4.48 -1.66,-1.68 -3.15,-3.49 -4.46,-5.46 -1.31,-1.96 -2.41,-4.04 -3.31,-6.22 -0.9,-2.18 -1.58,-4.43 -2.03,-6.75 -0.46,-2.31 -0.69,-4.65 -0.68,-7.01zm0.16 35.49c-6.6,-1.46 -12.96,-3.61 -19.09,-6.46 -0.52,-0.25 -1.06,-0.47 -1.59,-0.66 0.82,-6.18 3.36,-11.55 7.6,-16.11 2.24,8.94 6.6,16.68 13.08,23.23zm84.08 -21.69c3.34,4.47 5.64,9.42 6.9,14.85 -6.27,3.06 -12.8,5.35 -19.6,6.88 6.1,-6.15 10.33,-13.4 12.7,-21.73zm-45.99 -97.66c12.52,0 24.43,7.16 31.05,18.25 -5.79,5.57 -9.87,12.19 -12.23,19.87 -6.58,-3.08 -13.5,-4.66 -20.77,-4.72 -7.27,-0.06 -14.22,1.39 -20.85,4.36 -1.97,-6.38 -5.2,-12.05 -9.67,-17.02 1.43,-3.1 3.27,-5.93 5.52,-8.5 2.24,-2.57 4.8,-4.77 7.68,-6.61 2.88,-1.84 5.95,-3.23 9.23,-4.19 3.28,-0.96 6.62,-1.43 10.03,-1.43zm-97.37 51.28c-0.02,-3.91 0.67,-7.68 2.08,-11.33 1.4,-3.65 3.42,-6.91 6.06,-9.8 2.64,-2.89 5.71,-5.19 9.21,-6.92 3.51,-1.73 7.21,-2.76 11.1,-3.09 3.89,-0.33 7.71,0.06 11.46,1.17 3.75,1.11 7.16,2.87 10.25,5.27 3.08,2.4 5.63,5.28 7.62,8.64 2,3.36 3.32,6.97 3.96,10.82 -9.74,8.6 -15.32,19.36 -16.74,32.27 -4.26,2.67 -8.89,4.07 -13.91,4.21 -4.13,-0.01 -8.1,-0.82 -11.91,-2.41 -3.81,-1.59 -7.18,-3.85 -10.09,-6.78 -2.92,-2.93 -5.16,-6.3 -6.73,-10.12 -1.57,-3.82 -2.36,-7.8 -2.35,-11.93zm29.78 77.31c-0.02,-1.11 0.44,-1.96 1.4,-2.54 0.46,-0.29 0.97,-0.44 1.51,-0.45 0.43,0 0.84,0.1 1.23,0.29 15.47,7.47 37.79,11.75 61.24,11.75 24.12,0 46.01,-4.36 61.65,-12.28 0.44,-0.23 0.91,-0.34 1.4,-0.32 0.5,0.02 0.96,0.16 1.38,0.42 0.42,0.26 0.76,0.61 1,1.04 0.24,0.43 0.36,0.9 0.36,1.4 0.02,0.83 -0.28,1.53 -0.89,2.1 -12.25,10.73 -36.51,17.13 -64.9,17.13 -22.84,0 -51.62,-5.04 -64.39,-16.3 -0.66,-0.6 -0.99,-1.34 -0.99,-2.23zm14.46 25.4c14.19,4.83 31.96,7.57 50.92,7.57 16.99,0 32.55,-2.09 45.67,-6 -6.14,11.8 -10.78,24.16 -13.92,37.09 -5.94,24.81 -7.31,59.39 12.86,95.44 -41.96,20.87 -76.56,7.07 -89.5,0.16 14.07,-27.47 17.07,-59.42 8.55,-94.09 -3.47,-13.89 -8.33,-27.28 -14.59,-40.16zm-1.26 146.66c16.15,8.53 33.35,12.81 51.61,12.82 18.69,-0.1 36.31,-4.47 52.88,-13.12 2.23,3.2 4.65,6.4 7.26,9.61 -30.37,14.39 -60.17,18.52 -88.71,12.27 -10.75,-2.32 -20.94,-6.15 -30.55,-11.5 2.69,-3.27 5.19,-6.63 7.5,-10.07zm-17.87 20.71c11.53,6.97 23.87,11.89 37.02,14.78 9.76,2.18 19.64,3.26 29.64,3.25 20.41,0 45.41,-4.45 73.37,-18.46 10.79,9.86 19.13,21.49 25.02,34.87 5.89,13.38 8.82,27.38 8.8,42 0,57.36 -46.47,104.03 -103.59,104.03 -57.12,0 -103.59,-46.66 -103.59,-104.03 -0.02,-14.51 2.87,-28.41 8.67,-41.7 5.8,-13.3 14.02,-24.87 24.67,-34.73z"/>
 </g>
</svg>
