<?xml version="1.0" encoding="UTF-8"?>
<!DOCTYPE svg PUBLIC "-//W3C//DTD SVG 1.1//EN" "http://www.w3.org/Graphics/SVG/1.1/DTD/svg11.dtd">
<!-- Creator: CorelDRAW (Evaluation Version) -->
<svg xmlns="http://www.w3.org/2000/svg" xml:space="preserve" width="0.941106in" height="1.04384in" version="1.1" style="shape-rendering:geometricPrecision; text-rendering:geometricPrecision; image-rendering:optimizeQuality; fill-rule:evenodd; clip-rule:evenodd"
viewBox="0 0 127.97 141.94"
 xmlns:xlink="http://www.w3.org/1999/xlink"
 xmlns:xodm="http://www.corel.com/coreldraw/odm/2003">
 <defs>
  <style type="text/css">
   <![CDATA[
    .fil0 {fill:#1A1A1A}
   ]]>
  </style>
 </defs>
 <g id="Layer_x0020_1">
  <metadata id="CorelCorpID_0Corel-Layer"/>
  <g id="_2269900837008">
   <path class="fil0" d="M81.11 9.96c-8.07,-5.62 -17.82,-3.44 -26.57,-0.19 -3.16,6.45 -2.8,5.01 -2.72,12.63 0.08,6.31 -0.76,9.38 -1.2,15.23 -6.23,2.28 -7.11,5.76 -11.99,9.47 -8.43,-2.28 -24.45,-9.52 -33.12,-6.59 -1.84,5.85 3.68,5.2 16.3,7.94 6.59,1.39 13.62,5.76 19.54,6.45 3.24,-3.2 3.8,-5.48 6.15,-8.17 3.04,-3.44 5.95,-1.44 9.79,-4.5 2.84,-8.5 -0.44,-18.85 2.36,-27.3 20.1,-6.78 19.98,5.43 17.3,8.08 -5.51,5.53 -15.66,-7.48 -12.59,18.62 3.48,2.55 4.12,1.07 8.15,5.11 2.68,2.65 4.16,5.53 6.79,7.52 6.87,-0.84 34.44,-19.45 37.99,-24.75l-2.36 -2.79c-8.03,1.07 -24.53,16.85 -33.6,19.36l-10.87 -9.56 -0.24 -5.71c4.79,-0.37 7.35,0.79 10.99,-2.46 9.03,-7.94 -7.11,-8.22 20.66,-7.94 4.55,0.05 10.55,0.88 8.51,-5.48 -5.47,-1.86 -13.74,-1.35 -19.66,-2 5.43,-3.99 15.26,-5.01 18.38,-8.82l-2.16 -4.09c-6.47,-0.42 -19.46,6.13 -25.85,9.94z"/>
   <path class="fil0" d="M37.8 130.68l2.72 2.6c6.63,-5.2 9.99,-16.39 14.1,-19.64 0.64,7.01 -5.99,22.43 -4.16,27.91 10.51,3.48 6.35,-16.99 12.35,-27.91 0.64,4.88 2.32,9.56 3.24,14.3 0.92,4.74 1.08,11.7 7.59,9.52 1.44,-4.32 -3.56,-19.32 -4.19,-24.84 4.39,3.48 7.79,15.65 14.42,13.56 1.84,-5.53 -6.27,-14.21 -9.39,-18.94 -3.32,-5.11 -7.43,-15.55 -13.54,-16.3 -2.48,2.28 -23.29,35.38 -23.13,39.75z"/>
   <path class="fil0" d="M81.27 60.29c5.07,6.59 22.53,9.05 33.92,12.3 4.51,1.25 6.99,3.95 11.55,2.41 2.8,-8.36 -12.55,-8.82 -17.62,-11.38 6.11,-0.65 20.7,2.37 18.66,-5.71 -4.59,-1.53 -21.65,0.05 -26.05,-1.72 5.03,-3.11 18.78,-7.34 22.73,-12.21l-2.2 -4.04c-3.52,0 -36.68,14.81 -40.99,20.34z"/>
   <path class="fil0" d="M64.01 84.8c1.52,5.62 23.57,37.33 27.73,40.07l2.8 -2.32c0.8,-9.01 -19.78,-25.82 -20.97,-35.38 13.14,-10.35 4.51,-3.53 12.35,-11.33 5.47,2.79 31.16,13.88 35.72,12.44 2.24,-6.64 -2.68,-6.36 -16.34,-11.93 -6.47,-2.6 -15.26,-6.18 -21.85,-7.94 -3.56,2.93 -4.95,6.87 -8.07,9.33 -4.75,3.76 -7.67,2.14 -11.35,7.06z"/>
   <path class="fil0" d="M7.56 89.31c5.67,1.9 23.01,-10.03 27.93,-13.84 3.8,3.16 1.48,3.06 13.46,12.49 -3.8,4.97 -7.75,11.42 -11.03,16.76 -3,4.97 -9.83,13.6 -7.87,19.41 5.35,1.72 9.19,-8.4 14.66,-17.74 4.24,-7.24 9.11,-13.28 13.06,-21.17 -4.47,-4.5 -6.59,-2.41 -11.35,-7.24 -4,-4.04 -3.92,-7.24 -7.11,-11.28 -5.19,0.79 -12.11,6.45 -17.34,9.75 -4.43,2.83 -16.3,6.87 -14.42,12.86z"/>
   <path class="fil0" d="M45.95 72.31c10.07,10.22 22.41,6.5 25.01,1.02 1.32,-10.91 -1.12,-19.36 -13.74,-17.88 -4.12,1.95 -3.2,7.01 -3.32,10.73 3.12,2.93 4.4,4.04 8.51,2.65l0.88 -3.48c-3.96,-4.69 -2.64,0.65 -4.04,-3.76 2.52,-1.72 3.36,-0.19 5.59,2.04l0 7.29c-20.74,6.08 -12.59,-16.67 -8.67,-18.53 18.54,-2.18 9.51,10.59 19.5,7.24 4.47,-13.42 -34.72,-29.81 -29.72,12.68z"/>
   <path class="fil0" d="M1.52 52.02c3.2,4.13 12.39,5.8 17.54,6.5 -5.83,3.2 -14.22,0.56 -19.06,4.09 -0.24,8.22 9.11,3.99 13.94,4.09 -3.84,5.39 -11.43,5.01 -10.99,12.91 5.87,2 16.22,-8.68 28.77,-14.86 4.31,-2.14 7.71,-2.41 7.59,-7.24 -2.4,-1.76 -31.68,-8.5 -35.32,-8.26l-2.48 2.79z"/>
   <path class="fil0" d="M69.56 20.73l0.72 -5.29 -5.15 -0.19c-0.92,3.44 -1.28,7.29 4.43,5.48z"/>
  </g>
 </g>
</svg>
